# xmcd CD database file
#
# Track frame offsets:
#	150
#	12700
#	22583
#	33150
#	44870
#	59450
#	71142
#	81977
#	90960
#	102375
#	114293
#	129155
#	142630
#	154493
#	166080
#	181090
#	194960
#	203868
#
# Disc length: 2900 seconds
#
# Revision: 2
# Processed by: cddbd v1.5.2PL0 Copyright (c) Steve Scherf et al.
# Submitted via: CDex 1.70beta2
#
DISCID=f00b5212
DTITLE=Willie Nelson - Homegrown Boy
DYEAR=2001
DGENRE=Country
TTITLE0=The Shelter Of Your Arms
TTITLE1=Broken Promises
TTITLE2=Blame It On The Times
TTITLE3=Some Other Times
TTITLE4=Will You Remember Mine
TTITLE5=Happiness Lives Next Door
TTITLE6=Go Away
TTITLE7=Right From Wrong
TTITLE8=I'll Stay Around
TTITLE9=End Of Understanding
TTITLE10=And So Will You My Love
TTITLE11=No Tomorrow In Sight
TTITLE12=I Hope So
TTITLE13=Is There Something On Your Mind
TTITLE14=Face Of A Fighter
TTITLE15=Home Is Where You're Happy
TTITLE16=Waiting Time
TTITLE17=Everything But You
EXTD=YEAR: 2001
EXTT0=
EXTT1=
EXTT2=
EXTT3=
EXTT4=
EXTT5=
EXTT6=
EXTT7=
EXTT8=
EXTT9=
EXTT10=
EXTT11=
EXTT12=
EXTT13=
EXTT14=
EXTT15=
EXTT16=
EXTT17=
PLAYORDER=
